<?xml version="1.0"?><svg xmlns="http://www.w3.org/2000/svg"  viewBox="0 0 24 24" width="24px" height="24px">    <path d="M 4 3 C 2.897 3 2 3.897 2 5 L 2 19 C 2 20.103 2.897 21 4 21 L 8 21 L 8 20.675781 L 8.5585938 19 L 4 19 L 4 5 L 20 5 L 20 10.390625 C 20.165 10.581625 20.318312 10.781 20.445312 11 L 22 11 L 22 5 C 22 3.897 21.103 3 20 3 L 4 3 z M 6 7 L 6 9 L 12 9 L 12 7 L 6 7 z M 14 7 L 14 9 L 18 9 L 18 7 L 14 7 z M 6 11 L 6 13 L 9 13 L 9 11 L 6 11 z M 17 11 A 2 2 0 0 0 15 13 L 11 13 L 11 15 L 12 15 L 10 21 C 10 22.657 11.343 24 13 24 C 14.657 24 16 22.657 16 21 L 14 15 L 20 15 L 18 21 C 18 22.657 19.343 24 21 24 C 22.657 24 24 22.657 24 21 L 22 15 L 23 15 L 23 13 L 19 13 A 2 2 0 0 0 17 11 z M 6 15 L 6 17 L 9 17 L 9 15 L 6 15 z M 13 16.742188 L 14.419922 21 L 11.580078 21 L 13 16.742188 z M 21 16.742188 L 22.419922 21 L 19.580078 21 L 21 16.742188 z"/></svg>