<?xml version="1.0"?><svg xmlns="http://www.w3.org/2000/svg"  viewBox="0 0 128 128" width="50px" height="50px">    <path d="M 63.082031 6.0019531 C 48.515665 6.2411194 34.05 11.896875 23 23 C 6 39.9 1.2007813 65.099609 10.800781 87.099609 C 11.300781 88.199609 12.399609 88.900391 13.599609 88.900391 C 13.999609 88.900391 14.400781 88.799219 14.800781 88.699219 C 16.300781 87.999219 17.000391 86.300781 16.400391 84.800781 C 7.7003906 65.000781 11.999219 42.399219 27.199219 27.199219 C 45.899219 8.4992188 75.500391 7.1003906 95.900391 22.900391 L 90.599609 23.5 C 88.999609 23.7 87.8 25.200781 88 26.800781 C 88.2 28.300781 89.5 29.400391 91 29.400391 L 91.400391 29.400391 L 103.40039 28 C 105.00039 27.8 106.1 26.400781 106 24.800781 L 106 24.599609 L 106 24.199219 L 105.40039 13.5 C 105.30039 11.8 103.89922 10.599219 102.19922 10.699219 C 100.49922 10.799219 99.300391 12.200391 99.400391 13.900391 L 99.599609 18 C 88.865234 9.796875 75.934708 5.7909241 63.082031 6.0019531 z M 64 31 C 45.8 31 31 45.8 31 64 C 31 82.2 45.8 97 64 97 C 82.2 97 97 82.2 97 64 C 97 45.8 82.2 31 64 31 z M 64 37 C 67.6 37 70.999609 37.7 74.099609 39 L 74.199219 41.5 C 74.199219 43 73.300391 44.300391 71.900391 44.900391 C 68.900391 46.200391 65.899609 45.500391 64.599609 48.900391 C 63.599609 51.500391 66.299219 58.5 69.699219 58.5 C 73.899219 58.5 75.899219 50 77.199219 50 C 77.999219 50 79.299219 52.6 80.699219 54.5 C 81.699219 55.8 83.200391 56.5 84.900391 56.5 L 87.699219 56.5 L 90.199219 57.099609 C 90.799219 59.299609 91.099609 61.600391 91.099609 63.900391 C 91.099609 78.800391 78.999609 90.900391 64.099609 90.900391 C 59.399609 90.900391 54.999609 89.699609 51.099609 87.599609 C 51.399609 87.499609 51.600391 87.399219 51.900391 87.199219 C 52.900391 86.699219 53.9 85.999219 55 85.199219 C 55.8 84.699219 56.400391 83.899609 56.900391 83.099609 C 57.500391 82.099609 58.100391 81.100391 58.400391 79.900391 C 60.500391 71.700391 53.499219 71.399609 53.199219 69.599609 C 52.999219 67.599609 55.599219 66.1 57.199219 64.5 C 58.799219 62.9 59.2 60.5 58.5 59 C 55.9 54.3 49.599609 56.800781 49.099609 61.800781 C 48.799609 64.800781 47.000391 67.900391 45.400391 69.400391 C 43.800391 71.000391 40.8 70.2 40 68 C 39.1 65.5 42.300781 64.500781 41.800781 61.300781 C 41.700781 60.400781 40.799609 60.000781 39.599609 59.800781 L 37.199219 59.900391 C 39.299219 47.000391 50.5 37 64 37 z M 114.30078 38.828125 C 113.90547 38.8375 113.49961 38.924609 113.09961 39.099609 C 111.59961 39.799609 110.89961 41.499609 111.59961 43.099609 C 120.29961 62.899609 116.10078 85.600391 100.80078 100.90039 C 82.100781 119.50039 52.499609 120.89961 32.099609 105.09961 L 37.400391 104.5 C 39.000391 104.3 40.2 102.79922 40 101.19922 C 39.8 99.599219 38.299219 98.399609 36.699219 98.599609 L 24.699219 100 C 23.099219 100.2 21.999609 101.59922 22.099609 103.19922 L 22.800781 114.5 C 22.900781 116.1 24.200781 117.30078 25.800781 117.30078 L 26 117.30078 C 27.7 117.20078 28.900781 115.79961 28.800781 114.09961 L 28.599609 110 C 38.899609 117.9 51.5 122 64 122 C 78.9 122 93.7 116.3 105 105 C 122.1 87.9 126.79961 62.699609 117.09961 40.599609 C 116.57461 39.474609 115.48672 38.8 114.30078 38.828125 z M 83.382812 65.59375 C 81.944336 65.664648 79.936719 66.361719 77.199219 68.199219 C 75.099219 69.599219 71.500391 66.700391 69.900391 68.900391 C 68.400391 71.000391 76.399609 77.500781 79.099609 76.300781 C 83.599609 74.200781 86.599609 69.699609 86.599609 68.099609 C 86.599609 67.099609 85.780273 65.475586 83.382812 65.59375 z"/></svg>