<svg xmlns="http://www.w3.org/2000/svg"  viewBox="0 0 32 32" width="32px" height="32px"><path d="M 1 5 L 1 26 L 4.15625 26 C 4.601563 27.71875 6.148438 29 8 29 C 9.851563 29 11.398438 27.71875 11.84375 26 L 20.15625 26 C 20.601563 27.71875 22.148438 29 24 29 C 25.851563 29 27.398438 27.71875 27.84375 26 L 31 26 L 31 15.59375 L 30.71875 15.28125 L 24.71875 9.28125 L 24.40625 9 L 19 9 L 19 5 Z M 3 7 L 17 7 L 17 24 L 11.84375 24 C 11.398438 22.28125 9.851563 21 8 21 C 6.148438 21 4.601563 22.28125 4.15625 24 L 3 24 Z M 10 8 C 6.699219 8 4 10.699219 4 14 C 4 17.300781 6.699219 20 10 20 C 13.300781 20 16 17.300781 16 14 C 16 10.699219 13.300781 8 10 8 Z M 10 10 C 12.222656 10 14 11.777344 14 14 C 14 16.222656 12.222656 18 10 18 C 7.777344 18 6 16.222656 6 14 C 6 11.777344 7.777344 10 10 10 Z M 9 11 L 9 14.40625 L 9.28125 14.71875 L 10.71875 16.125 L 12.125 14.71875 L 11 13.5625 L 11 11 Z M 19 11 L 23.5625 11 L 29 16.4375 L 29 24 L 27.84375 24 C 27.398438 22.28125 25.851563 21 24 21 C 22.148438 21 20.601563 22.28125 20.15625 24 L 19 24 Z M 8 23 C 9.117188 23 10 23.882813 10 25 C 10 26.117188 9.117188 27 8 27 C 6.882813 27 6 26.117188 6 25 C 6 23.882813 6.882813 23 8 23 Z M 24 23 C 25.117188 23 26 23.882813 26 25 C 26 26.117188 25.117188 27 24 27 C 22.882813 27 22 26.117188 22 25 C 22 23.882813 22.882813 23 24 23 Z"/></svg>